<svg xmlns="http://www.w3.org/2000/svg" xmlns:xlink="http://www.w3.org/1999/xlink" width="500" zoomAndPan="magnify" viewBox="0 0 375 374.999991" height="500" preserveAspectRatio="xMidYMid meet" version="1.0"><defs><clipPath id="6b34a55f87"><path d="M 21.28125 6.582031 L 353.53125 6.582031 L 353.53125 323 L 21.28125 323 Z M 21.28125 6.582031 " clip-rule="nonzero"/></clipPath><clipPath id="9c7c7dd521"><path d="M 126 115 L 249 115 L 249 368.082031 L 126 368.082031 Z M 126 115 " clip-rule="nonzero"/></clipPath></defs><g clip-path="url(#6b34a55f87)"><path fill="#f7931e" d="M 345.886719 155.941406 L 334.359375 153.992188 C 333.335938 153.816406 332.332031 153.570312 331.34375 153.253906 C 330.355469 152.9375 329.394531 152.550781 328.464844 152.09375 C 327.53125 151.640625 326.636719 151.121094 325.777344 150.535156 C 324.921875 149.953125 324.109375 149.3125 323.34375 148.613281 C 322.578125 147.910156 321.867188 147.160156 321.207031 146.359375 C 320.546875 145.558594 319.949219 144.714844 319.414062 143.828125 C 318.875 142.9375 318.40625 142.019531 318 141.0625 C 317.59375 140.109375 317.257812 139.128906 316.992188 138.128906 C 316.972656 138.039062 316.945312 137.953125 316.921875 137.859375 C 316.652344 136.859375 316.453125 135.84375 316.328125 134.816406 C 316.199219 133.785156 316.148438 132.753906 316.171875 131.714844 C 316.191406 130.679688 316.289062 129.648438 316.457031 128.625 C 316.628906 127.601562 316.867188 126.597656 317.183594 125.609375 C 317.496094 124.621094 317.878906 123.660156 318.328125 122.726562 C 318.777344 121.792969 319.292969 120.894531 319.871094 120.035156 C 320.453125 119.171875 321.089844 118.359375 321.785156 117.589844 C 322.480469 116.820312 323.226562 116.105469 324.027344 115.441406 L 333.035156 107.992188 C 336.542969 105.09375 337.886719 101.109375 336.292969 98.34375 L 326.261719 80.980469 C 324.667969 78.21875 320.542969 77.386719 316.277344 78.976562 L 305.273438 83.066406 C 304.300781 83.425781 303.308594 83.714844 302.296875 83.933594 C 301.28125 84.152344 300.257812 84.296875 299.226562 84.367188 C 298.191406 84.441406 297.15625 84.4375 296.125 84.363281 C 295.089844 84.285156 294.066406 84.136719 293.054688 83.914062 C 292.042969 83.691406 291.050781 83.398438 290.082031 83.035156 C 289.113281 82.671875 288.171875 82.238281 287.265625 81.738281 C 286.355469 81.242188 285.488281 80.679688 284.660156 80.058594 C 283.832031 79.433594 283.050781 78.757812 282.320312 78.023438 L 282.125 77.824219 C 281.386719 77.09375 280.710938 76.316406 280.085938 75.488281 C 279.460938 74.660156 278.902344 73.792969 278.402344 72.882812 C 277.902344 71.976562 277.472656 71.039062 277.105469 70.066406 C 276.742188 69.097656 276.449219 68.109375 276.226562 67.097656 C 276.003906 66.085938 275.851562 65.0625 275.777344 64.027344 C 275.699219 62.996094 275.695312 61.960938 275.769531 60.929688 C 275.839844 59.894531 275.984375 58.871094 276.203125 57.859375 C 276.421875 56.847656 276.710938 55.855469 277.070312 54.882812 L 281.164062 43.882812 C 282.75 39.617188 281.921875 35.5 279.15625 33.902344 L 261.785156 23.875 C 259.019531 22.28125 255.035156 23.621094 252.132812 27.128906 L 244.679688 36.136719 C 244.019531 36.933594 243.304688 37.679688 242.535156 38.375 C 241.765625 39.070312 240.949219 39.710938 240.089844 40.289062 C 239.226562 40.867188 238.332031 41.382812 237.394531 41.832031 C 236.460938 42.285156 235.5 42.664062 234.511719 42.976562 C 233.523438 43.292969 232.515625 43.53125 231.492188 43.703125 C 230.46875 43.871094 229.4375 43.96875 228.402344 43.988281 C 227.363281 44.011719 226.332031 43.957031 225.300781 43.832031 C 224.273438 43.707031 223.257812 43.507812 222.253906 43.238281 L 221.988281 43.167969 C 220.984375 42.902344 220.007812 42.566406 219.050781 42.160156 C 218.097656 41.753906 217.175781 41.285156 216.285156 40.746094 C 215.398438 40.210938 214.554688 39.613281 213.753906 38.953125 C 212.949219 38.296875 212.199219 37.585938 211.5 36.820312 C 210.800781 36.054688 210.160156 35.242188 209.574219 34.382812 C 208.992188 33.527344 208.472656 32.632812 208.015625 31.699219 C 207.558594 30.769531 207.171875 29.808594 206.855469 28.820312 C 206.539062 27.835938 206.292969 26.828125 206.117188 25.808594 L 204.167969 14.28125 C 203.410156 9.796875 200.628906 6.640625 197.433594 6.640625 L 177.378906 6.640625 C 174.1875 6.640625 171.40625 9.796875 170.648438 14.28125 L 168.695312 25.808594 C 168.523438 26.828125 168.277344 27.835938 167.957031 28.820312 C 167.640625 29.808594 167.25 30.765625 166.796875 31.699219 C 166.339844 32.628906 165.820312 33.523438 165.234375 34.382812 C 164.652344 35.238281 164.011719 36.050781 163.308594 36.816406 C 162.609375 37.578125 161.859375 38.292969 161.054688 38.949219 C 160.253906 39.605469 159.410156 40.203125 158.519531 40.738281 C 157.632812 41.277344 156.710938 41.746094 155.757812 42.152344 C 154.800781 42.554688 153.824219 42.890625 152.820312 43.15625 L 152.550781 43.226562 C 151.550781 43.5 150.535156 43.695312 149.507812 43.824219 C 148.476562 43.949219 147.441406 44 146.40625 43.976562 C 145.367188 43.957031 144.339844 43.859375 143.316406 43.691406 C 142.292969 43.523438 141.285156 43.28125 140.296875 42.96875 C 139.308594 42.65625 138.347656 42.273438 137.410156 41.820312 C 136.476562 41.371094 135.582031 40.855469 134.71875 40.277344 C 133.859375 39.699219 133.042969 39.0625 132.273438 38.367188 C 131.503906 37.671875 130.789062 36.921875 130.125 36.125 L 122.675781 27.117188 C 119.773438 23.613281 115.785156 22.269531 113.023438 23.867188 L 95.652344 33.890625 C 92.902344 35.488281 92.066406 39.605469 93.652344 43.875 L 97.746094 54.875 C 98.105469 55.847656 98.394531 56.839844 98.613281 57.851562 C 98.832031 58.863281 98.976562 59.886719 99.046875 60.921875 C 99.117188 61.957031 99.117188 62.988281 99.039062 64.023438 C 98.960938 65.054688 98.8125 66.078125 98.589844 67.089844 C 98.367188 68.101562 98.074219 69.089844 97.707031 70.0625 C 97.34375 71.03125 96.910156 71.96875 96.414062 72.878906 C 95.914062 73.785156 95.351562 74.652344 94.730469 75.480469 C 94.105469 76.308594 93.425781 77.085938 92.691406 77.816406 L 92.496094 78.023438 C 91.765625 78.757812 90.984375 79.433594 90.15625 80.058594 C 89.328125 80.679688 88.460938 81.242188 87.550781 81.742188 C 86.644531 82.242188 85.703125 82.671875 84.734375 83.035156 C 83.765625 83.402344 82.773438 83.695312 81.761719 83.917969 C 80.75 84.140625 79.726562 84.289062 78.695312 84.367188 C 77.660156 84.441406 76.625 84.445312 75.59375 84.375 C 74.558594 84.304688 73.535156 84.15625 72.523438 83.941406 C 71.507812 83.722656 70.515625 83.433594 69.542969 83.074219 L 58.539062 78.980469 C 54.273438 77.394531 50.15625 78.222656 48.554688 80.988281 L 38.527344 98.351562 C 36.929688 101.113281 38.273438 105.101562 41.78125 108 L 50.789062 115.449219 C 51.589844 116.113281 52.335938 116.828125 53.03125 117.597656 C 53.726562 118.367188 54.363281 119.179688 54.945312 120.039062 C 55.523438 120.902344 56.039062 121.796875 56.488281 122.730469 C 56.941406 123.664062 57.320312 124.628906 57.636719 125.617188 C 57.949219 126.605469 58.191406 127.609375 58.359375 128.632812 C 58.527344 129.65625 58.625 130.6875 58.644531 131.722656 C 58.667969 132.757812 58.617188 133.792969 58.488281 134.820312 C 58.363281 135.851562 58.164062 136.867188 57.894531 137.867188 C 57.871094 137.957031 57.847656 138.042969 57.824219 138.132812 C 57.558594 139.136719 57.222656 140.117188 56.816406 141.070312 C 56.410156 142.023438 55.941406 142.945312 55.402344 143.832031 C 54.867188 144.71875 54.269531 145.566406 53.609375 146.367188 C 52.953125 147.167969 52.238281 147.917969 51.472656 148.617188 C 50.707031 149.316406 49.894531 149.960938 49.039062 150.542969 C 48.179688 151.125 47.285156 151.644531 46.351562 152.101562 C 45.421875 152.554688 44.460938 152.941406 43.472656 153.261719 C 42.484375 153.578125 41.480469 153.824219 40.457031 154 L 28.929688 155.945312 C 24.441406 156.703125 21.285156 159.484375 21.285156 162.679688 L 21.285156 182.726562 C 21.285156 185.917969 24.441406 188.699219 28.929688 189.457031 L 40.457031 191.40625 C 41.480469 191.578125 42.484375 191.824219 43.472656 192.144531 C 44.460938 192.460938 45.421875 192.847656 46.351562 193.300781 C 47.285156 193.757812 48.179688 194.277344 49.039062 194.859375 C 49.894531 195.445312 50.707031 196.085938 51.472656 196.785156 C 52.238281 197.484375 52.953125 198.234375 53.609375 199.035156 C 54.269531 199.839844 54.867188 200.683594 55.402344 201.570312 C 55.941406 202.457031 56.410156 203.378906 56.816406 204.332031 C 57.222656 205.289062 57.558594 206.265625 57.824219 207.269531 C 57.847656 207.359375 57.871094 207.445312 57.894531 207.535156 C 58.164062 208.535156 58.363281 209.550781 58.488281 210.582031 C 58.613281 211.609375 58.664062 212.640625 58.640625 213.675781 C 58.621094 214.714844 58.523438 215.742188 58.355469 216.765625 C 58.183594 217.789062 57.941406 218.792969 57.628906 219.78125 C 57.316406 220.769531 56.933594 221.730469 56.484375 222.660156 C 56.03125 223.59375 55.519531 224.492188 54.941406 225.351562 C 54.359375 226.210938 53.722656 227.023438 53.027344 227.792969 C 52.332031 228.5625 51.585938 229.277344 50.789062 229.941406 L 41.777344 237.390625 C 38.269531 240.289062 36.925781 244.273438 38.523438 247.039062 L 48.550781 264.402344 C 50.148438 267.164062 54.273438 267.996094 58.539062 266.40625 L 69.542969 262.316406 C 70.515625 261.957031 71.507812 261.667969 72.519531 261.449219 C 73.53125 261.230469 74.558594 261.085938 75.589844 261.015625 C 76.625 260.945312 77.65625 260.945312 78.691406 261.023438 C 79.726562 261.097656 80.746094 261.25 81.761719 261.472656 C 82.773438 261.695312 83.761719 261.988281 84.734375 262.351562 C 85.703125 262.71875 86.640625 263.148438 87.550781 263.648438 C 88.457031 264.148438 89.328125 264.707031 90.15625 265.332031 C 90.984375 265.953125 91.761719 266.632812 92.492188 267.367188 L 92.691406 267.566406 C 93.425781 268.296875 94.105469 269.074219 94.726562 269.902344 C 95.351562 270.730469 95.910156 271.597656 96.410156 272.503906 C 96.910156 273.414062 97.34375 274.351562 97.707031 275.320312 C 98.070312 276.292969 98.367188 277.28125 98.589844 278.292969 C 98.8125 279.304688 98.960938 280.328125 99.039062 281.359375 C 99.113281 282.394531 99.117188 283.425781 99.042969 284.460938 C 98.972656 285.492188 98.828125 286.515625 98.609375 287.53125 C 98.394531 288.542969 98.105469 289.535156 97.742188 290.507812 L 93.652344 301.507812 C 92.0625 305.769531 92.894531 309.890625 95.65625 311.488281 L 113.027344 321.511719 C 115.792969 323.109375 119.777344 321.765625 122.679688 318.261719 L 126.699219 313.414062 L 126.699219 246.441406 C 104.207031 227.894531 90.269531 199.3125 91.890625 167.710938 C 94.398438 118.875 133.570312 79.71875 182.425781 77.210938 C 238.964844 74.308594 285.839844 121.160156 282.929688 177.675781 C 281.503906 205.414062 268.257812 230.027344 248.125 246.574219 L 248.125 313.421875 L 252.140625 318.265625 C 255.042969 321.773438 259.03125 323.117188 261.796875 321.519531 L 279.164062 311.496094 C 281.929688 309.902344 282.757812 305.777344 281.171875 301.515625 L 277.078125 290.511719 C 276.71875 289.542969 276.429688 288.550781 276.210938 287.535156 C 275.992188 286.523438 275.847656 285.5 275.777344 284.46875 C 275.707031 283.433594 275.707031 282.402344 275.785156 281.367188 C 275.859375 280.335938 276.011719 279.3125 276.234375 278.300781 C 276.457031 277.289062 276.75 276.296875 277.113281 275.328125 C 277.480469 274.359375 277.910156 273.421875 278.410156 272.511719 C 278.910156 271.605469 279.472656 270.738281 280.09375 269.910156 C 280.71875 269.082031 281.398438 268.300781 282.132812 267.570312 L 282.328125 267.375 C 283.058594 266.640625 283.839844 265.960938 284.667969 265.339844 C 285.496094 264.714844 286.363281 264.15625 287.269531 263.65625 C 288.179688 263.15625 289.117188 262.726562 290.089844 262.359375 C 291.058594 261.996094 292.050781 261.703125 293.0625 261.480469 C 294.074219 261.257812 295.097656 261.105469 296.128906 261.03125 C 297.164062 260.953125 298.199219 260.949219 299.230469 261.023438 C 300.265625 261.09375 301.289062 261.238281 302.300781 261.457031 C 303.316406 261.675781 304.308594 261.964844 305.28125 262.324219 L 316.285156 266.414062 C 320.550781 268 324.667969 267.171875 326.269531 264.40625 L 336.296875 247.046875 C 337.894531 244.28125 336.550781 240.296875 333.042969 237.394531 L 324.027344 229.941406 C 323.226562 229.277344 322.480469 228.5625 321.785156 227.792969 C 321.089844 227.023438 320.453125 226.210938 319.871094 225.347656 C 319.292969 224.488281 318.777344 223.589844 318.328125 222.65625 C 317.878906 221.722656 317.496094 220.761719 317.183594 219.773438 C 316.867188 218.785156 316.628906 217.78125 316.457031 216.757812 C 316.289062 215.734375 316.191406 214.703125 316.171875 213.667969 C 316.148438 212.628906 316.199219 211.597656 316.328125 210.566406 C 316.453125 209.539062 316.652344 208.523438 316.921875 207.523438 C 316.945312 207.433594 316.972656 207.347656 316.992188 207.253906 C 317.257812 206.253906 317.59375 205.273438 318 204.320312 C 318.40625 203.363281 318.875 202.445312 319.414062 201.554688 C 319.949219 200.667969 320.546875 199.824219 321.207031 199.023438 C 321.867188 198.222656 322.578125 197.472656 323.34375 196.769531 C 324.109375 196.070312 324.921875 195.429688 325.777344 194.847656 C 326.636719 194.261719 327.53125 193.742188 328.464844 193.289062 C 329.394531 192.832031 330.355469 192.445312 331.34375 192.128906 C 332.332031 191.8125 333.335938 191.566406 334.359375 191.390625 L 345.886719 189.441406 C 350.375 188.683594 353.53125 185.90625 353.53125 182.710938 L 353.53125 162.664062 C 353.53125 159.476562 350.375 156.699219 345.886719 155.941406 Z M 345.886719 155.941406 " fill-opacity="1" fill-rule="nonzero"/></g><g clip-path="url(#9c7c7dd521)"><path fill="#000000" d="M 248.082031 169.984375 C 248.082031 195.558594 232.253906 217.433594 209.851562 226.351562 L 209.851562 345.597656 C 209.851562 346.332031 209.816406 347.066406 209.742188 347.796875 C 209.671875 348.527344 209.5625 349.253906 209.417969 349.976562 C 209.277344 350.695312 209.097656 351.40625 208.882812 352.109375 C 208.671875 352.8125 208.425781 353.503906 208.140625 354.183594 C 207.859375 354.863281 207.546875 355.527344 207.199219 356.175781 C 206.855469 356.820312 206.476562 357.453125 206.070312 358.0625 C 205.660156 358.671875 205.222656 359.261719 204.757812 359.832031 C 204.289062 360.398438 203.796875 360.941406 203.277344 361.460938 C 202.757812 361.980469 202.214844 362.476562 201.644531 362.941406 C 201.078125 363.40625 200.488281 363.84375 199.875 364.253906 C 199.265625 364.660156 198.636719 365.039062 197.988281 365.382812 C 197.339844 365.730469 196.675781 366.042969 195.996094 366.324219 C 195.316406 366.605469 194.625 366.855469 193.921875 367.066406 C 193.21875 367.28125 192.507812 367.457031 191.785156 367.601562 C 191.066406 367.746094 190.339844 367.851562 189.605469 367.925781 C 188.875 367.996094 188.144531 368.035156 187.40625 368.035156 C 186.671875 368.035156 185.9375 367.996094 185.207031 367.925781 C 184.476562 367.851562 183.75 367.746094 183.027344 367.601562 C 182.308594 367.457031 181.597656 367.28125 180.890625 367.066406 C 180.1875 366.855469 179.496094 366.605469 178.820312 366.324219 C 178.140625 366.042969 177.476562 365.730469 176.828125 365.382812 C 176.179688 365.039062 175.550781 364.660156 174.9375 364.253906 C 174.328125 363.84375 173.738281 363.40625 173.167969 362.941406 C 172.601562 362.476562 172.058594 361.980469 171.539062 361.460938 C 171.019531 360.941406 170.523438 360.398438 170.058594 359.832031 C 169.59375 359.261719 169.15625 358.671875 168.746094 358.0625 C 168.339844 357.453125 167.960938 356.820312 167.613281 356.175781 C 167.269531 355.527344 166.953125 354.863281 166.671875 354.183594 C 166.390625 353.503906 166.144531 352.8125 165.929688 352.109375 C 165.71875 351.40625 165.539062 350.695312 165.394531 349.976562 C 165.25 349.253906 165.144531 348.527344 165.070312 347.796875 C 165 347.066406 164.964844 346.332031 164.964844 345.597656 L 164.964844 226.351562 C 142.5625 217.433594 126.734375 195.558594 126.734375 169.984375 C 126.734375 146.433594 140.164062 126.011719 159.792969 115.964844 L 159.792969 170.066406 L 215.023438 170.066406 L 215.023438 115.96875 C 234.648438 126.011719 248.082031 146.433594 248.082031 169.984375 Z M 248.082031 169.984375 " fill-opacity="1" fill-rule="nonzero"/></g></svg>