<svg xmlns="http://www.w3.org/2000/svg" xmlns:xlink="http://www.w3.org/1999/xlink" width="500" zoomAndPan="magnify" viewBox="0 0 375 374.999991" height="500" preserveAspectRatio="xMidYMid meet" version="1.0"><defs><clipPath id="373abb61ba"><path d="M 5.117188 82 L 295 82 L 295 372.839844 L 5.117188 372.839844 Z M 5.117188 82 " clip-rule="nonzero"/></clipPath><clipPath id="cd472bb6dd"><path d="M 115 2.339844 L 369.617188 2.339844 L 369.617188 257 L 115 257 Z M 115 2.339844 " clip-rule="nonzero"/></clipPath></defs><g clip-path="url(#373abb61ba)"><path fill="#f7931e" d="M 291.003906 279.609375 L 282.742188 272.769531 C 282.011719 272.160156 281.324219 271.503906 280.6875 270.796875 C 280.050781 270.089844 279.464844 269.339844 278.933594 268.550781 C 278.402344 267.761719 277.929688 266.9375 277.515625 266.078125 C 277.101562 265.222656 276.753906 264.339844 276.464844 263.429688 C 276.179688 262.523438 275.957031 261.597656 275.800781 260.660156 C 275.644531 259.71875 275.558594 258.773438 275.539062 257.820312 C 275.519531 256.867188 275.566406 255.917969 275.679688 254.972656 C 275.796875 254.027344 275.980469 253.097656 276.226562 252.175781 C 276.25 252.097656 276.273438 252.015625 276.292969 251.929688 C 276.9375 249.496094 278.007812 247.257812 279.496094 245.226562 C 280.984375 243.195312 282.792969 241.503906 284.921875 240.15625 L 282.601562 237.34375 C 281.488281 236 280.144531 234.957031 278.5625 234.214844 C 276.984375 233.472656 275.320312 233.105469 273.578125 233.109375 C 272.53125 233.109375 271.503906 233.246094 270.496094 233.515625 L 270.28125 233.574219 C 268.515625 234.042969 266.945312 234.878906 265.566406 236.082031 C 257.878906 288.964844 212.402344 329.5625 157.457031 329.5625 C 97.121094 329.570312 48.210938 280.59375 48.210938 220.183594 C 48.210938 176.527344 73.753906 138.839844 110.695312 121.296875 C 111.046875 116.703125 115.015625 112.910156 120.597656 111.96875 L 129.410156 110.472656 C 130.519531 110.277344 131.578125 109.933594 132.585938 109.4375 C 133.597656 108.941406 134.515625 108.316406 135.34375 107.554688 C 136.175781 106.796875 136.878906 105.933594 137.460938 104.972656 C 138.046875 104.007812 138.480469 102.984375 138.769531 101.894531 L 138.824219 101.679688 C 139.242188 100.128906 139.335938 98.554688 139.113281 96.964844 C 138.890625 95.375 138.367188 93.890625 137.539062 92.515625 C 136.195312 94.65625 134.503906 96.476562 132.46875 97.976562 C 130.429688 99.480469 128.191406 100.554688 125.75 101.203125 L 125.503906 101.269531 C 124.585938 101.515625 123.652344 101.699219 122.710938 101.816406 C 121.765625 101.929688 120.816406 101.976562 119.867188 101.957031 C 118.914062 101.9375 117.96875 101.851562 117.03125 101.695312 C 116.09375 101.539062 115.171875 101.316406 114.265625 101.03125 C 113.355469 100.742188 112.476562 100.390625 111.617188 99.976562 C 110.761719 99.5625 109.9375 99.089844 109.148438 98.558594 C 108.359375 98.027344 107.613281 97.441406 106.90625 96.804688 C 106.203125 96.164062 105.546875 95.480469 104.9375 94.746094 L 98.105469 86.472656 C 95.445312 83.253906 91.789062 82.019531 89.253906 83.488281 L 73.324219 92.695312 C 70.78125 94.160156 70.03125 97.949219 71.484375 101.863281 L 75.238281 111.96875 C 75.566406 112.863281 75.832031 113.773438 76.03125 114.703125 C 76.230469 115.632812 76.363281 116.574219 76.429688 117.523438 C 76.496094 118.472656 76.492188 119.421875 76.421875 120.371094 C 76.351562 121.316406 76.214844 122.257812 76.007812 123.1875 C 75.804688 124.117188 75.535156 125.027344 75.199219 125.917969 C 74.867188 126.804688 74.46875 127.667969 74.011719 128.503906 C 73.554688 129.335938 73.039062 130.132812 72.46875 130.894531 C 71.894531 131.652344 71.273438 132.367188 70.597656 133.039062 L 70.417969 133.21875 C 69.746094 133.894531 69.035156 134.519531 68.273438 135.089844 C 67.515625 135.664062 66.71875 136.179688 65.886719 136.636719 C 65.054688 137.097656 64.191406 137.492188 63.304688 137.828125 C 62.414062 138.164062 61.503906 138.433594 60.578125 138.636719 C 59.648438 138.84375 58.710938 138.980469 57.761719 139.050781 C 56.816406 139.121094 55.867188 139.125 54.917969 139.058594 C 53.972656 138.992188 53.03125 138.859375 52.101562 138.660156 C 51.175781 138.460938 50.265625 138.195312 49.371094 137.863281 L 39.285156 134.101562 C 35.371094 132.644531 31.589844 133.40625 30.125 135.945312 L 20.929688 151.890625 C 19.464844 154.4375 20.699219 158.089844 23.914062 160.753906 L 32.175781 167.597656 C 32.910156 168.203125 33.59375 168.863281 34.230469 169.570312 C 34.871094 170.273438 35.453125 171.023438 35.984375 171.8125 C 36.515625 172.601562 36.988281 173.425781 37.402344 174.285156 C 37.816406 175.140625 38.164062 176.023438 38.453125 176.933594 C 38.738281 177.839844 38.960938 178.761719 39.117188 179.703125 C 39.273438 180.644531 39.359375 181.589844 39.378906 182.539062 C 39.398438 183.492188 39.351562 184.441406 39.238281 185.386719 C 39.121094 186.332031 38.941406 187.265625 38.691406 188.183594 C 38.667969 188.265625 38.644531 188.347656 38.625 188.429688 C 38.382812 189.347656 38.074219 190.25 37.703125 191.125 C 37.332031 192 36.898438 192.847656 36.40625 193.664062 C 35.914062 194.476562 35.367188 195.253906 34.761719 195.988281 C 34.160156 196.726562 33.503906 197.414062 32.804688 198.058594 C 32.101562 198.699219 31.355469 199.289062 30.570312 199.824219 C 29.785156 200.359375 28.960938 200.835938 28.109375 201.257812 C 27.253906 201.675781 26.375 202.027344 25.46875 202.320312 C 24.5625 202.613281 23.640625 202.839844 22.703125 203 L 12.128906 204.789062 C 8.015625 205.484375 5.121094 208.039062 5.121094 210.972656 L 5.121094 229.382812 C 5.121094 232.316406 8.015625 234.871094 12.128906 235.566406 L 22.703125 237.355469 C 23.640625 237.515625 24.5625 237.742188 25.46875 238.035156 C 26.375 238.328125 27.253906 238.679688 28.109375 239.101562 C 28.960938 239.519531 29.785156 239.996094 30.570312 240.53125 C 31.355469 241.066406 32.101562 241.65625 32.804688 242.296875 C 33.503906 242.941406 34.160156 243.628906 34.761719 244.367188 C 35.367188 245.101562 35.914062 245.878906 36.40625 246.691406 C 36.898438 247.507812 37.332031 248.355469 37.703125 249.230469 C 38.074219 250.105469 38.382812 251.007812 38.625 251.925781 C 38.644531 252.007812 38.667969 252.089844 38.691406 252.171875 C 38.941406 253.09375 39.121094 254.023438 39.238281 254.96875 C 39.351562 255.914062 39.402344 256.863281 39.378906 257.816406 C 39.359375 258.769531 39.273438 259.714844 39.117188 260.652344 C 38.960938 261.59375 38.742188 262.519531 38.453125 263.425781 C 38.167969 264.332031 37.816406 265.214844 37.402344 266.074219 C 36.988281 266.933594 36.515625 267.757812 35.984375 268.546875 C 35.453125 269.335938 34.871094 270.085938 34.230469 270.792969 C 33.59375 271.496094 32.910156 272.15625 32.175781 272.761719 L 23.914062 279.605469 C 20.699219 282.269531 19.464844 285.929688 20.929688 288.46875 L 30.125 304.414062 C 31.589844 306.960938 35.371094 307.710938 39.285156 306.257812 L 49.378906 302.5 C 50.269531 302.167969 51.179688 301.90625 52.109375 301.703125 C 53.035156 301.503906 53.976562 301.371094 54.921875 301.304688 C 55.871094 301.242188 56.820312 301.242188 57.765625 301.3125 C 58.714844 301.382812 59.652344 301.523438 60.582031 301.726562 C 61.507812 301.929688 62.417969 302.203125 63.308594 302.535156 C 64.195312 302.871094 65.058594 303.269531 65.890625 303.726562 C 66.722656 304.183594 67.519531 304.699219 68.277344 305.273438 C 69.039062 305.84375 69.753906 306.46875 70.421875 307.144531 L 70.601562 307.324219 C 71.277344 307.996094 71.898438 308.710938 72.472656 309.472656 C 73.042969 310.230469 73.558594 311.027344 74.015625 311.863281 C 74.472656 312.695312 74.871094 313.558594 75.207031 314.449219 C 75.539062 315.339844 75.808594 316.25 76.015625 317.179688 C 76.21875 318.105469 76.355469 319.046875 76.425781 319.996094 C 76.496094 320.945312 76.5 321.894531 76.433594 322.84375 C 76.367188 323.792969 76.234375 324.730469 76.035156 325.660156 C 75.835938 326.59375 75.570312 327.503906 75.242188 328.394531 L 71.488281 338.5 C 70.03125 342.417969 70.792969 346.203125 73.328125 347.667969 L 89.257812 356.875 C 91.800781 358.34375 95.449219 357.109375 98.109375 353.890625 L 104.941406 345.617188 C 105.550781 344.882812 106.207031 344.199219 106.910156 343.558594 C 107.617188 342.921875 108.363281 342.335938 109.152344 341.804688 C 109.941406 341.273438 110.765625 340.800781 111.621094 340.386719 C 112.480469 339.972656 113.363281 339.621094 114.269531 339.332031 C 115.175781 339.046875 116.097656 338.824219 117.035156 338.667969 C 117.976562 338.511719 118.921875 338.425781 119.871094 338.40625 C 120.820312 338.382812 121.769531 338.433594 122.714844 338.546875 C 123.660156 338.664062 124.589844 338.84375 125.507812 339.09375 L 125.753906 339.160156 C 126.671875 339.402344 127.570312 339.710938 128.445312 340.082031 C 129.320312 340.457031 130.167969 340.890625 130.980469 341.382812 C 131.792969 341.875 132.570312 342.425781 133.304688 343.027344 C 134.039062 343.632812 134.726562 344.285156 135.371094 344.988281 C 136.011719 345.691406 136.601562 346.4375 137.136719 347.226562 C 137.671875 348.011719 138.148438 348.835938 138.566406 349.691406 C 138.984375 350.546875 139.335938 351.425781 139.628906 352.335938 C 139.921875 353.242188 140.144531 354.164062 140.304688 355.101562 L 142.09375 365.6875 C 142.789062 369.808594 145.339844 372.707031 148.269531 372.707031 L 166.660156 372.707031 C 169.589844 372.707031 172.136719 369.808594 172.835938 365.6875 L 174.621094 355.101562 C 174.78125 354.164062 175.007812 353.242188 175.300781 352.335938 C 175.589844 351.425781 175.945312 350.546875 176.363281 349.691406 C 176.78125 348.835938 177.257812 348.011719 177.792969 347.226562 C 178.328125 346.4375 178.914062 345.691406 179.558594 344.988281 C 180.199219 344.285156 180.886719 343.632812 181.625 343.027344 C 182.359375 342.425781 183.132812 341.875 183.945312 341.382812 C 184.761719 340.890625 185.605469 340.457031 186.480469 340.082031 C 187.355469 339.710938 188.253906 339.402344 189.175781 339.160156 L 189.417969 339.09375 C 190.339844 338.84375 191.269531 338.664062 192.214844 338.546875 C 193.15625 338.433594 194.105469 338.382812 195.058594 338.40625 C 196.007812 338.425781 196.953125 338.511719 197.890625 338.667969 C 198.828125 338.824219 199.753906 339.046875 200.660156 339.332031 C 201.566406 339.621094 202.449219 339.972656 203.304688 340.386719 C 204.160156 340.800781 204.984375 341.273438 205.773438 341.804688 C 206.5625 342.335938 207.308594 342.921875 208.015625 343.558594 C 208.722656 344.199219 209.378906 344.882812 209.984375 345.617188 L 216.820312 353.890625 C 219.480469 357.109375 223.132812 358.34375 225.671875 356.875 L 241.597656 347.667969 C 244.140625 346.203125 244.890625 342.417969 243.4375 338.5 L 239.683594 328.402344 C 239.351562 327.507812 239.085938 326.597656 238.886719 325.667969 C 238.6875 324.738281 238.554688 323.796875 238.488281 322.847656 C 238.425781 321.898438 238.425781 320.949219 238.496094 320 C 238.566406 319.050781 238.703125 318.113281 238.910156 317.183594 C 239.113281 316.253906 239.382812 315.34375 239.71875 314.453125 C 240.054688 313.5625 240.449219 312.703125 240.90625 311.867188 C 241.363281 311.035156 241.878906 310.238281 242.453125 309.476562 C 243.023438 308.71875 243.644531 308 244.320312 307.332031 L 244.5 307.152344 C 245.171875 306.476562 245.886719 305.851562 246.644531 305.28125 C 247.402344 304.707031 248.199219 304.191406 249.03125 303.734375 C 249.863281 303.273438 250.726562 302.878906 251.617188 302.542969 C 252.503906 302.207031 253.414062 301.9375 254.34375 301.734375 C 255.269531 301.527344 256.207031 301.390625 257.15625 301.320312 C 258.101562 301.25 259.050781 301.25 260 301.3125 C 260.949219 301.378906 261.886719 301.511719 262.816406 301.710938 C 263.746094 301.910156 264.65625 302.175781 265.546875 302.507812 L 275.640625 306.265625 C 279.550781 307.722656 283.332031 306.960938 284.796875 304.421875 L 293.992188 288.476562 C 295.453125 285.933594 294.222656 282.273438 291.003906 279.609375 Z M 291.003906 279.609375 " fill-opacity="1" fill-rule="nonzero"/></g><path fill="#000000" d="M 250.25 261.710938 L 234.761719 261.710938 C 220.644531 288.003906 193.53125 306.265625 162.027344 307.882812 C 110.183594 310.550781 67.203125 267.515625 69.859375 215.601562 C 71.429688 184.972656 88.675781 158.492188 113.71875 144.042969 C 111.792969 142.246094 110.660156 139.882812 110.660156 137.300781 L 110.660156 127.855469 C 77.089844 144.960938 54.082031 179.882812 54.082031 220.183594 C 54.082031 277.347656 100.363281 323.6875 157.457031 323.6875 C 199.894531 323.6875 236.359375 298.085938 252.285156 261.46875 C 251.617188 261.628906 250.9375 261.710938 250.25 261.710938 Z M 250.25 261.710938 " fill-opacity="1" fill-rule="nonzero"/><g clip-path="url(#cd472bb6dd)"><path fill="#000000" d="M 242.511719 43.988281 C 195.304688 43.988281 157.039062 82.300781 157.039062 129.5625 C 157.039062 176.828125 195.304688 215.148438 242.511719 215.148438 C 289.71875 215.148438 327.984375 176.835938 327.984375 129.570312 C 327.984375 82.308594 289.71875 43.988281 242.511719 43.988281 Z M 246.394531 202.757812 C 203.164062 204.980469 167.328125 169.097656 169.546875 125.820312 C 171.464844 88.414062 201.414062 58.429688 238.773438 56.503906 C 282 54.28125 317.835938 90.160156 315.617188 133.441406 C 313.699219 170.851562 283.75 200.835938 246.394531 202.757812 Z M 242.511719 43.988281 C 195.304688 43.988281 157.039062 82.300781 157.039062 129.5625 C 157.039062 176.828125 195.304688 215.148438 242.511719 215.148438 C 289.71875 215.148438 327.984375 176.835938 327.984375 129.570312 C 327.984375 82.308594 289.71875 43.988281 242.511719 43.988281 Z M 246.394531 202.757812 C 203.164062 204.980469 167.328125 169.097656 169.546875 125.820312 C 171.464844 88.414062 201.414062 58.429688 238.773438 56.503906 C 282 54.28125 317.835938 90.160156 315.617188 133.441406 C 313.699219 170.851562 283.75 200.835938 246.394531 202.757812 Z M 363.757812 116.800781 L 354.945312 115.304688 C 354.160156 115.171875 353.394531 114.980469 352.636719 114.738281 C 351.882812 114.496094 351.148438 114.199219 350.4375 113.851562 C 349.722656 113.5 349.039062 113.105469 348.382812 112.65625 C 347.726562 112.210938 347.105469 111.71875 346.519531 111.183594 C 345.933594 110.648438 345.390625 110.074219 344.886719 109.457031 C 344.382812 108.84375 343.925781 108.199219 343.515625 107.519531 C 343.105469 106.839844 342.746094 106.132812 342.433594 105.402344 C 342.125 104.671875 341.867188 103.921875 341.664062 103.15625 L 341.613281 102.949219 C 341.40625 102.183594 341.253906 101.40625 341.15625 100.617188 C 341.058594 99.832031 341.019531 99.039062 341.035156 98.246094 C 341.054688 97.449219 341.128906 96.664062 341.257812 95.878906 C 341.386719 95.09375 341.570312 94.324219 341.808594 93.566406 C 342.050781 92.8125 342.339844 92.074219 342.6875 91.359375 C 343.03125 90.644531 343.425781 89.957031 343.867188 89.296875 C 344.308594 88.640625 344.796875 88.015625 345.328125 87.425781 C 345.863281 86.835938 346.433594 86.289062 347.042969 85.78125 L 353.925781 80.078125 C 356.605469 77.855469 357.636719 74.804688 356.414062 72.6875 L 348.746094 59.390625 C 347.527344 57.273438 344.371094 56.636719 341.117188 57.851562 L 332.699219 60.996094 C 331.957031 61.273438 331.199219 61.496094 330.421875 61.660156 C 329.648438 61.828125 328.867188 61.9375 328.074219 61.992188 C 327.285156 62.046875 326.496094 62.046875 325.707031 61.988281 C 324.914062 61.929688 324.132812 61.8125 323.359375 61.644531 C 322.585938 61.472656 321.828125 61.246094 321.085938 60.96875 C 320.34375 60.691406 319.625 60.359375 318.933594 59.976562 C 318.238281 59.59375 317.574219 59.164062 316.941406 58.6875 C 316.308594 58.210938 315.710938 57.691406 315.152344 57.128906 L 315.003906 56.976562 C 314.441406 56.417969 313.921875 55.824219 313.445312 55.1875 C 312.96875 54.554688 312.539062 53.890625 312.160156 53.195312 C 311.777344 52.5 311.445312 51.78125 311.167969 51.039062 C 310.890625 50.296875 310.664062 49.539062 310.496094 48.761719 C 310.324219 47.988281 310.210938 47.207031 310.152344 46.414062 C 310.09375 45.621094 310.089844 44.832031 310.144531 44.039062 C 310.199219 43.25 310.308594 42.464844 310.476562 41.691406 C 310.644531 40.914062 310.863281 40.15625 311.140625 39.410156 L 314.269531 30.984375 C 315.484375 27.71875 314.847656 24.558594 312.734375 23.34375 L 299.453125 15.667969 C 297.339844 14.445312 294.289062 15.472656 292.070312 18.160156 L 286.375 25.050781 C 285.867188 25.660156 285.320312 26.234375 284.730469 26.765625 C 284.144531 27.296875 283.519531 27.785156 282.859375 28.230469 C 282.203125 28.671875 281.515625 29.066406 280.800781 29.414062 C 280.089844 29.757812 279.351562 30.050781 278.597656 30.289062 C 277.839844 30.53125 277.070312 30.714844 276.289062 30.84375 C 275.507812 30.972656 274.71875 31.046875 273.925781 31.0625 C 273.132812 31.082031 272.34375 31.039062 271.554688 30.945312 C 270.765625 30.847656 269.992188 30.695312 269.226562 30.488281 L 269.023438 30.433594 C 268.253906 30.230469 267.507812 29.972656 266.777344 29.664062 C 266.046875 29.355469 265.339844 28.992188 264.664062 28.582031 C 263.984375 28.171875 263.339844 27.710938 262.726562 27.207031 C 262.113281 26.703125 261.539062 26.160156 261.003906 25.574219 C 260.46875 24.988281 259.976562 24.367188 259.53125 23.707031 C 259.085938 23.050781 258.6875 22.367188 258.339844 21.652344 C 257.992188 20.941406 257.695312 20.203125 257.453125 19.449219 C 257.207031 18.691406 257.019531 17.921875 256.886719 17.140625 L 255.390625 8.3125 C 254.808594 4.878906 252.683594 2.460938 250.242188 2.460938 L 234.917969 2.460938 C 232.476562 2.460938 230.347656 4.878906 229.769531 8.3125 L 228.269531 17.140625 C 228.136719 17.921875 227.949219 18.691406 227.707031 19.449219 C 227.464844 20.203125 227.167969 20.941406 226.820312 21.652344 C 226.472656 22.367188 226.074219 23.050781 225.628906 23.707031 C 225.179688 24.367188 224.691406 24.988281 224.15625 25.574219 C 223.621094 26.160156 223.046875 26.703125 222.433594 27.207031 C 221.820312 27.710938 221.175781 28.171875 220.496094 28.582031 C 219.816406 28.992188 219.113281 29.355469 218.382812 29.664062 C 217.652344 29.972656 216.902344 30.230469 216.136719 30.433594 L 215.933594 30.488281 C 215.167969 30.695312 214.390625 30.847656 213.605469 30.941406 C 212.816406 31.039062 212.027344 31.078125 211.234375 31.0625 C 210.441406 31.042969 209.652344 30.96875 208.871094 30.839844 C 208.089844 30.710938 207.320312 30.527344 206.5625 30.285156 C 205.808594 30.046875 205.074219 29.753906 204.359375 29.40625 C 203.644531 29.0625 202.957031 28.667969 202.300781 28.222656 C 201.644531 27.78125 201.019531 27.292969 200.433594 26.761719 C 199.84375 26.226562 199.296875 25.65625 198.789062 25.042969 L 193.09375 18.152344 C 190.875 15.46875 187.828125 14.4375 185.710938 15.660156 L 172.429688 23.335938 C 170.316406 24.558594 169.683594 27.71875 170.894531 30.976562 L 174.023438 39.40625 C 174.300781 40.148438 174.519531 40.910156 174.6875 41.683594 C 174.855469 42.460938 174.964844 43.242188 175.019531 44.035156 C 175.074219 44.828125 175.070312 45.617188 175.011719 46.410156 C 174.953125 47.199219 174.839844 47.984375 174.667969 48.757812 C 174.496094 49.535156 174.273438 50.292969 173.992188 51.035156 C 173.714844 51.777344 173.382812 52.496094 173 53.191406 C 172.621094 53.886719 172.191406 54.550781 171.714844 55.183594 C 171.234375 55.816406 170.714844 56.414062 170.152344 56.972656 L 170.003906 57.125 C 169.445312 57.6875 168.851562 58.207031 168.21875 58.683594 C 167.585938 59.160156 166.921875 59.589844 166.226562 59.972656 C 165.535156 60.355469 164.816406 60.683594 164.074219 60.964844 C 163.335938 61.242188 162.578125 61.46875 161.804688 61.640625 C 161.03125 61.808594 160.25 61.925781 159.457031 61.984375 C 158.667969 62.042969 157.878906 62.042969 157.089844 61.992188 C 156.296875 61.9375 155.515625 61.824219 154.742188 61.660156 C 153.96875 61.492188 153.207031 61.273438 152.464844 60.996094 L 144.050781 57.863281 C 140.789062 56.648438 137.632812 57.285156 136.417969 59.402344 L 128.75 72.699219 C 127.53125 74.816406 128.558594 77.867188 131.238281 80.089844 L 138.121094 85.792969 C 138.734375 86.300781 139.304688 86.847656 139.835938 87.4375 C 140.367188 88.027344 140.855469 88.652344 141.296875 89.308594 C 141.742188 89.96875 142.136719 90.65625 142.480469 91.371094 C 142.824219 92.085938 143.117188 92.824219 143.355469 93.578125 C 143.59375 94.335938 143.78125 95.105469 143.910156 95.890625 C 144.039062 96.675781 144.113281 97.464844 144.128906 98.257812 C 144.144531 99.050781 144.105469 99.84375 144.007812 100.628906 C 143.914062 101.417969 143.761719 102.195312 143.554688 102.960938 L 143.5 103.167969 C 143.296875 103.933594 143.039062 104.683594 142.730469 105.414062 C 142.421875 106.144531 142.0625 106.851562 141.648438 107.53125 C 141.238281 108.210938 140.78125 108.855469 140.277344 109.46875 C 139.773438 110.085938 139.230469 110.660156 138.644531 111.195312 C 138.058594 111.730469 137.4375 112.222656 136.78125 112.667969 C 136.128906 113.117188 135.441406 113.511719 134.730469 113.863281 C 134.015625 114.210938 133.285156 114.507812 132.527344 114.75 C 131.773438 114.992188 131.003906 115.183594 130.222656 115.316406 L 121.40625 116.8125 C 117.976562 117.394531 115.5625 119.523438 115.5625 121.96875 L 115.5625 137.324219 C 115.5625 139.765625 117.976562 141.894531 121.40625 142.476562 L 130.222656 143.976562 C 131.003906 144.109375 131.773438 144.296875 132.527344 144.539062 C 133.285156 144.785156 134.015625 145.078125 134.730469 145.429688 C 135.441406 145.777344 136.128906 146.175781 136.78125 146.621094 C 137.4375 147.070312 138.058594 147.558594 138.644531 148.097656 C 139.230469 148.632812 139.773438 149.207031 140.277344 149.820312 C 140.78125 150.433594 141.238281 151.082031 141.648438 151.761719 C 142.0625 152.441406 142.421875 153.144531 142.730469 153.875 C 143.039062 154.605469 143.296875 155.355469 143.5 156.125 L 143.554688 156.328125 C 143.761719 157.09375 143.914062 157.871094 144.007812 158.660156 C 144.105469 159.449219 144.144531 160.238281 144.128906 161.035156 C 144.113281 161.828125 144.039062 162.617188 143.910156 163.398438 C 143.78125 164.183594 143.59375 164.953125 143.355469 165.710938 C 143.117188 166.46875 142.824219 167.203125 142.480469 167.917969 C 142.136719 168.636719 141.742188 169.320312 141.296875 169.980469 C 140.855469 170.640625 140.367188 171.265625 139.835938 171.851562 C 139.304688 172.441406 138.734375 172.988281 138.121094 173.496094 L 131.238281 179.203125 C 128.558594 181.421875 127.53125 184.476562 128.75 186.59375 L 136.417969 199.890625 C 137.640625 202.003906 140.792969 202.640625 144.050781 201.425781 L 152.464844 198.292969 C 153.207031 198.019531 153.964844 197.796875 154.738281 197.628906 C 155.515625 197.460938 156.296875 197.351562 157.085938 197.296875 C 157.875 197.238281 158.664062 197.242188 159.453125 197.300781 C 160.246094 197.355469 161.027344 197.472656 161.800781 197.640625 C 162.574219 197.808594 163.332031 198.035156 164.070312 198.3125 C 164.8125 198.589844 165.53125 198.921875 166.226562 199.300781 C 166.917969 199.683594 167.582031 200.109375 168.214844 200.585938 C 168.847656 201.0625 169.445312 201.582031 170.003906 202.144531 L 170.152344 202.292969 C 170.714844 202.851562 171.234375 203.449219 171.710938 204.082031 C 172.1875 204.714844 172.617188 205.382812 173 206.074219 C 173.382812 206.769531 173.710938 207.488281 173.992188 208.234375 C 174.269531 208.976562 174.492188 209.734375 174.664062 210.507812 C 174.835938 211.285156 174.949219 212.066406 175.007812 212.855469 C 175.066406 213.648438 175.066406 214.441406 175.011719 215.230469 C 174.957031 216.023438 174.847656 216.804688 174.683594 217.582031 C 174.515625 218.355469 174.292969 219.117188 174.019531 219.859375 L 170.902344 228.285156 C 169.6875 231.550781 170.324219 234.710938 172.4375 235.925781 L 185.714844 243.609375 C 187.828125 244.832031 190.878906 243.804688 193.097656 241.121094 L 198.792969 234.230469 C 199.300781 233.617188 199.847656 233.046875 200.433594 232.511719 C 201.023438 231.980469 201.644531 231.492188 202.304688 231.046875 C 202.960938 230.601562 203.648438 230.207031 204.363281 229.863281 C 205.078125 229.515625 205.8125 229.222656 206.566406 228.984375 C 207.324219 228.742188 208.09375 228.558594 208.875 228.429688 C 209.65625 228.296875 210.445312 228.226562 211.238281 228.207031 C 212.03125 228.191406 212.820312 228.230469 213.609375 228.324219 C 214.398438 228.421875 215.171875 228.574219 215.9375 228.78125 L 216.144531 228.835938 C 216.910156 229.039062 217.660156 229.292969 218.386719 229.605469 C 219.117188 229.914062 219.824219 230.277344 220.5 230.6875 C 221.179688 231.097656 221.824219 231.554688 222.4375 232.058594 C 223.050781 232.5625 223.625 233.109375 224.160156 233.695312 C 224.695312 234.28125 225.1875 234.902344 225.632812 235.558594 C 226.082031 236.214844 226.476562 236.902344 226.824219 237.613281 C 227.175781 238.328125 227.46875 239.0625 227.710938 239.820312 C 227.957031 240.574219 228.144531 241.34375 228.277344 242.128906 L 229.773438 250.953125 C 230.355469 254.390625 232.480469 256.804688 234.921875 256.804688 L 250.257812 256.804688 C 252.699219 256.804688 254.824219 254.390625 255.40625 250.953125 L 256.902344 242.128906 C 257.035156 241.34375 257.222656 240.574219 257.464844 239.820312 C 257.710938 239.0625 258.003906 238.328125 258.355469 237.613281 C 258.703125 236.902344 259.097656 236.214844 259.546875 235.558594 C 259.992188 234.902344 260.484375 234.28125 261.019531 233.695312 C 261.554688 233.109375 262.125 232.5625 262.738281 232.058594 C 263.351562 231.554688 264 231.097656 264.675781 230.6875 C 265.355469 230.277344 266.0625 229.914062 266.789062 229.605469 C 267.519531 229.292969 268.269531 229.039062 269.035156 228.835938 L 269.238281 228.78125 C 270.003906 228.574219 270.78125 228.421875 271.570312 228.324219 C 272.355469 228.226562 273.148438 228.1875 273.941406 228.203125 C 274.734375 228.222656 275.519531 228.292969 276.304688 228.425781 C 277.085938 228.554688 277.855469 228.738281 278.613281 228.980469 C 279.367188 229.21875 280.101562 229.511719 280.816406 229.855469 C 281.53125 230.199219 282.21875 230.59375 282.875 231.039062 C 283.535156 231.480469 284.15625 231.96875 284.746094 232.503906 C 285.335938 233.035156 285.882812 233.605469 286.386719 234.21875 L 292.085938 241.109375 C 294.304688 243.792969 297.351562 244.824219 299.46875 243.601562 L 312.746094 235.925781 C 314.863281 234.703125 315.496094 231.542969 314.28125 228.285156 L 311.15625 219.859375 C 310.878906 219.113281 310.660156 218.355469 310.492188 217.578125 C 310.324219 216.804688 310.214844 216.019531 310.160156 215.226562 C 310.105469 214.4375 310.105469 213.644531 310.164062 212.855469 C 310.222656 212.0625 310.339844 211.28125 310.507812 210.503906 C 310.679688 209.730469 310.90625 208.972656 311.183594 208.230469 C 311.460938 207.488281 311.792969 206.769531 312.175781 206.074219 C 312.554688 205.378906 312.984375 204.714844 313.460938 204.078125 C 313.9375 203.445312 314.457031 202.847656 315.019531 202.289062 L 315.167969 202.140625 C 315.726562 201.578125 316.324219 201.058594 316.957031 200.582031 C 317.589844 200.101562 318.253906 199.675781 318.945312 199.292969 C 319.640625 198.910156 320.359375 198.578125 321.101562 198.300781 C 321.84375 198.019531 322.601562 197.796875 323.375 197.625 C 324.148438 197.453125 324.929688 197.339844 325.71875 197.28125 C 326.511719 197.222656 327.300781 197.21875 328.089844 197.273438 C 328.882812 197.328125 329.664062 197.441406 330.4375 197.605469 C 331.214844 197.773438 331.972656 197.996094 332.714844 198.269531 L 341.132812 201.402344 C 344.394531 202.621094 347.546875 201.984375 348.761719 199.867188 L 356.429688 186.570312 C 357.648438 184.453125 356.621094 181.402344 353.941406 179.179688 L 347.058594 173.476562 C 346.449219 172.96875 345.875 172.417969 345.34375 171.832031 C 344.8125 171.242188 344.324219 170.617188 343.882812 169.957031 C 343.441406 169.300781 343.046875 168.613281 342.699219 167.898438 C 342.355469 167.183594 342.0625 166.445312 341.824219 165.6875 C 341.585938 164.929688 341.402344 164.160156 341.269531 163.378906 C 341.140625 162.59375 341.070312 161.804688 341.050781 161.011719 C 341.035156 160.21875 341.074219 159.425781 341.171875 158.636719 C 341.269531 157.851562 341.417969 157.074219 341.625 156.304688 L 341.679688 156.101562 C 341.882812 155.335938 342.140625 154.585938 342.449219 153.855469 C 342.761719 153.121094 343.121094 152.417969 343.53125 151.738281 C 343.941406 151.058594 344.398438 150.410156 344.902344 149.796875 C 345.40625 149.183594 345.949219 148.609375 346.535156 148.074219 C 347.121094 147.539062 347.742188 147.046875 348.398438 146.597656 C 349.054688 146.152344 349.738281 145.753906 350.449219 145.40625 C 351.164062 145.058594 351.898438 144.761719 352.652344 144.519531 C 353.40625 144.273438 354.175781 144.085938 354.957031 143.953125 L 363.773438 142.453125 C 367.207031 141.875 369.617188 139.746094 369.617188 137.300781 L 369.617188 121.957031 C 369.605469 119.511719 367.191406 117.382812 363.757812 116.804688 Z M 242.511719 220.882812 C 192.140625 220.882812 151.304688 179.996094 151.304688 129.5625 C 151.304688 79.128906 192.140625 38.246094 242.511719 38.246094 C 292.886719 38.246094 333.722656 79.125 333.722656 129.5625 C 333.722656 180.003906 292.886719 220.882812 242.511719 220.882812 Z M 242.511719 43.984375 C 195.304688 43.984375 157.039062 82.296875 157.039062 129.5625 C 157.039062 176.824219 195.304688 215.148438 242.511719 215.148438 C 289.71875 215.148438 327.984375 176.835938 327.984375 129.570312 C 327.984375 82.308594 289.71875 43.988281 242.511719 43.988281 Z M 315.617188 133.449219 C 313.699219 170.851562 283.746094 200.835938 246.390625 202.757812 C 203.164062 204.980469 167.328125 169.097656 169.546875 125.820312 C 171.464844 88.414062 201.414062 58.429688 238.773438 56.503906 C 282 54.289062 317.832031 90.167969 315.617188 133.449219 Z M 315.617188 133.449219 " fill-opacity="1" fill-rule="nonzero"/></g><path fill="#f7931e" d="M 242.511719 43.988281 C 195.304688 43.988281 157.039062 82.300781 157.039062 129.5625 C 157.039062 176.828125 195.304688 215.148438 242.511719 215.148438 C 289.71875 215.148438 327.984375 176.835938 327.984375 129.570312 C 327.984375 82.308594 289.71875 43.988281 242.511719 43.988281 Z M 246.394531 202.757812 C 203.164062 204.980469 167.328125 169.097656 169.546875 125.820312 C 171.464844 88.414062 201.414062 58.429688 238.773438 56.503906 C 282 54.28125 317.835938 90.160156 315.617188 133.441406 C 313.699219 170.851562 283.75 200.835938 246.394531 202.757812 Z M 246.394531 202.757812 " fill-opacity="1" fill-rule="nonzero"/><path fill="#f7931e" d="M 242.511719 43.988281 C 195.304688 43.988281 157.039062 82.300781 157.039062 129.5625 C 157.039062 176.828125 195.304688 215.148438 242.511719 215.148438 C 289.71875 215.148438 327.984375 176.835938 327.984375 129.570312 C 327.984375 82.308594 289.71875 43.988281 242.511719 43.988281 Z M 246.394531 202.757812 C 203.164062 204.980469 167.328125 169.097656 169.546875 125.820312 C 171.464844 88.414062 201.414062 58.429688 238.773438 56.503906 C 282 54.28125 317.835938 90.160156 315.617188 133.441406 C 313.699219 170.851562 283.75 200.835938 246.394531 202.757812 Z M 246.394531 202.757812 " fill-opacity="1" fill-rule="nonzero"/></svg>