<svg xmlns="http://www.w3.org/2000/svg" xmlns:xlink="http://www.w3.org/1999/xlink" width="500" zoomAndPan="magnify" viewBox="0 0 375 374.999991" height="500" preserveAspectRatio="xMidYMid meet" version="1.0"><defs><clipPath id="7f21269925"><path d="M 37 218 L 338 218 L 338 369.257812 L 37 369.257812 Z M 37 218 " clip-rule="nonzero"/></clipPath><clipPath id="69c4dc566c"><path d="M 23.175781 195 L 351.675781 195 L 351.675781 211 L 23.175781 211 Z M 23.175781 195 " clip-rule="nonzero"/></clipPath><clipPath id="a76dd2e3b7"><path d="M 155 5.507812 L 220 5.507812 L 220 111 L 155 111 Z M 155 5.507812 " clip-rule="nonzero"/></clipPath></defs><g clip-path="url(#7f21269925)"><path fill="#f7931e" d="M 43.957031 234.066406 L 54.394531 235.832031 C 55.320312 235.988281 56.230469 236.210938 57.125 236.5 C 58.015625 236.785156 58.886719 237.136719 59.730469 237.546875 C 60.574219 237.960938 61.382812 238.429688 62.160156 238.960938 C 62.9375 239.488281 63.671875 240.066406 64.367188 240.703125 C 65.058594 241.335938 65.703125 242.015625 66.300781 242.742188 C 66.894531 243.464844 67.4375 244.230469 67.921875 245.035156 C 68.410156 245.835938 68.835938 246.671875 69.203125 247.535156 C 69.570312 248.398438 69.875 249.285156 70.113281 250.195312 C 70.132812 250.273438 70.15625 250.355469 70.179688 250.433594 C 70.425781 251.339844 70.605469 252.261719 70.71875 253.191406 C 70.832031 254.125 70.878906 255.058594 70.859375 256 C 70.839844 256.9375 70.753906 257.871094 70.601562 258.796875 C 70.445312 259.722656 70.226562 260.632812 69.945312 261.527344 C 69.660156 262.421875 69.316406 263.292969 68.90625 264.140625 C 68.5 264.984375 68.03125 265.796875 67.507812 266.578125 C 66.984375 267.355469 66.40625 268.09375 65.777344 268.789062 C 65.144531 269.484375 64.46875 270.132812 63.746094 270.734375 L 55.589844 277.476562 C 52.414062 280.105469 51.199219 283.710938 52.644531 286.214844 L 61.726562 301.9375 C 63.171875 304.441406 66.902344 305.191406 70.765625 303.753906 L 80.730469 300.046875 C 81.609375 299.722656 82.507812 299.460938 83.425781 299.265625 C 84.339844 299.066406 85.269531 298.933594 86.203125 298.871094 C 87.140625 298.804688 88.074219 298.808594 89.011719 298.878906 C 89.945312 298.945312 90.871094 299.082031 91.789062 299.285156 C 92.703125 299.484375 93.601562 299.75 94.480469 300.082031 C 95.359375 300.410156 96.207031 300.800781 97.03125 301.253906 C 97.851562 301.707031 98.636719 302.214844 99.386719 302.777344 C 100.136719 303.34375 100.84375 303.957031 101.503906 304.621094 L 101.691406 304.808594 C 102.355469 305.46875 102.972656 306.175781 103.535156 306.925781 C 104.101562 307.671875 104.609375 308.460938 105.058594 309.28125 C 105.511719 310.101562 105.902344 310.953125 106.234375 311.832031 C 106.5625 312.710938 106.828125 313.605469 107.03125 314.523438 C 107.234375 315.4375 107.367188 316.363281 107.4375 317.300781 C 107.507812 318.234375 107.507812 319.171875 107.445312 320.105469 C 107.378906 321.042969 107.25 321.96875 107.050781 322.886719 C 106.855469 323.800781 106.59375 324.699219 106.265625 325.578125 L 102.550781 335.535156 C 101.113281 339.394531 101.863281 343.128906 104.367188 344.574219 L 120.09375 353.652344 C 122.597656 355.097656 126.207031 353.882812 128.832031 350.707031 L 135.578125 342.554688 C 136.179688 341.832031 136.828125 341.15625 137.523438 340.523438 C 138.21875 339.894531 138.957031 339.316406 139.738281 338.792969 C 140.515625 338.269531 141.328125 337.804688 142.171875 337.394531 C 143.019531 336.988281 143.890625 336.640625 144.785156 336.359375 C 145.679688 336.074219 146.589844 335.855469 147.519531 335.703125 C 148.445312 335.550781 149.378906 335.460938 150.316406 335.441406 C 151.253906 335.421875 152.191406 335.46875 153.121094 335.582031 C 154.054688 335.699219 154.972656 335.878906 155.878906 336.121094 L 156.121094 336.1875 C 157.03125 336.429688 157.917969 336.730469 158.78125 337.097656 C 159.644531 337.464844 160.480469 337.890625 161.28125 338.378906 C 162.085938 338.863281 162.851562 339.40625 163.578125 340 C 164.300781 340.597656 164.980469 341.242188 165.617188 341.933594 C 166.25 342.628906 166.832031 343.363281 167.359375 344.140625 C 167.886719 344.914062 168.355469 345.726562 168.769531 346.570312 C 169.183594 347.414062 169.53125 348.28125 169.820312 349.175781 C 170.109375 350.070312 170.332031 350.980469 170.488281 351.90625 L 172.25 362.339844 C 172.9375 366.402344 175.457031 369.253906 178.347656 369.253906 L 196.503906 369.253906 C 199.394531 369.253906 201.910156 366.398438 202.597656 362.339844 L 204.363281 351.90625 C 204.519531 350.980469 204.742188 350.070312 205.03125 349.175781 C 205.316406 348.28125 205.667969 347.414062 206.078125 346.570312 C 206.492188 345.726562 206.960938 344.914062 207.492188 344.140625 C 208.019531 343.363281 208.601562 342.628906 209.234375 341.933594 C 209.867188 341.242188 210.546875 340.597656 211.273438 340 C 212 339.40625 212.761719 338.863281 213.566406 338.378906 C 214.371094 337.890625 215.203125 337.464844 216.070312 337.097656 C 216.933594 336.730469 217.820312 336.429688 218.726562 336.1875 L 218.96875 336.121094 C 219.875 335.878906 220.792969 335.699219 221.726562 335.582031 C 222.660156 335.46875 223.59375 335.421875 224.53125 335.441406 C 225.472656 335.460938 226.40625 335.550781 227.332031 335.703125 C 228.257812 335.855469 229.167969 336.074219 230.0625 336.359375 C 230.960938 336.640625 231.828125 336.988281 232.675781 337.394531 C 233.519531 337.804688 234.332031 338.269531 235.113281 338.792969 C 235.890625 339.316406 236.628906 339.894531 237.328125 340.523438 C 238.023438 341.15625 238.671875 341.832031 239.269531 342.554688 L 246.015625 350.707031 C 248.644531 353.882812 252.253906 355.097656 254.757812 353.652344 L 270.480469 344.574219 C 272.984375 343.128906 273.734375 339.398438 272.296875 335.535156 L 268.59375 325.574219 C 268.265625 324.695312 268.003906 323.796875 267.808594 322.878906 C 267.609375 321.960938 267.480469 321.035156 267.414062 320.101562 C 267.351562 319.164062 267.351562 318.230469 267.421875 317.292969 C 267.492188 316.359375 267.628906 315.433594 267.828125 314.515625 C 268.03125 313.601562 268.296875 312.703125 268.628906 311.824219 C 268.957031 310.949219 269.347656 310.097656 269.800781 309.277344 C 270.253906 308.453125 270.761719 307.667969 271.324219 306.917969 C 271.890625 306.167969 272.503906 305.464844 273.167969 304.804688 L 273.355469 304.617188 C 274.015625 303.953125 274.722656 303.335938 275.472656 302.773438 C 276.222656 302.210938 277.007812 301.703125 277.828125 301.25 C 278.652344 300.800781 279.5 300.410156 280.378906 300.082031 C 281.257812 299.75 282.152344 299.484375 283.070312 299.285156 C 283.984375 299.082031 284.910156 298.945312 285.84375 298.878906 C 286.78125 298.808594 287.714844 298.808594 288.652344 298.871094 C 289.585938 298.9375 290.511719 299.066406 291.429688 299.265625 C 292.347656 299.460938 293.246094 299.722656 294.125 300.046875 L 304.085938 303.753906 C 307.949219 305.191406 311.683594 304.4375 313.128906 301.933594 L 322.207031 286.214844 C 323.65625 283.710938 322.4375 280.101562 319.265625 277.476562 L 311.105469 270.730469 C 310.382812 270.132812 309.707031 269.484375 309.078125 268.789062 C 308.449219 268.089844 307.871094 267.351562 307.347656 266.574219 C 306.824219 265.796875 306.355469 264.984375 305.949219 264.136719 C 305.539062 263.292969 305.195312 262.421875 304.910156 261.527344 C 304.628906 260.632812 304.410156 259.71875 304.253906 258.792969 C 304.101562 257.867188 304.015625 256.933594 303.996094 255.996094 C 303.976562 255.058594 304.023438 254.121094 304.136719 253.191406 C 304.25 252.257812 304.429688 251.339844 304.675781 250.433594 C 304.699219 250.351562 304.71875 250.273438 304.742188 250.191406 C 304.980469 249.285156 305.285156 248.398438 305.652344 247.535156 C 306.019531 246.667969 306.445312 245.835938 306.933594 245.03125 C 307.417969 244.230469 307.960938 243.464844 308.554688 242.738281 C 309.152344 242.011719 309.796875 241.332031 310.488281 240.699219 C 311.183594 240.066406 311.917969 239.484375 312.695312 238.957031 C 313.46875 238.429688 314.28125 237.957031 315.125 237.546875 C 315.96875 237.132812 316.835938 236.785156 317.730469 236.496094 C 318.625 236.207031 319.535156 235.984375 320.460938 235.828125 L 330.898438 234.0625 C 334.960938 233.378906 337.8125 230.859375 337.8125 227.96875 L 337.8125 218.894531 L 274.015625 218.894531 C 274.015625 220.386719 273.976562 221.890625 273.898438 223.40625 C 271.628906 267.628906 236.167969 303.082031 191.9375 305.351562 C 142.269531 307.902344 100.839844 268.023438 100.839844 218.894531 L 37.035156 218.894531 L 37.035156 227.96875 C 37.035156 230.859375 39.894531 233.378906 43.957031 234.066406 Z M 43.957031 234.066406 " fill-opacity="1" fill-rule="nonzero"/></g><g clip-path="url(#69c4dc566c)"><path fill="#000000" d="M 30.699219 195.496094 L 344.152344 195.496094 C 344.648438 195.496094 345.136719 195.542969 345.621094 195.640625 C 346.105469 195.734375 346.574219 195.878906 347.03125 196.066406 C 347.488281 196.257812 347.921875 196.488281 348.332031 196.761719 C 348.742188 197.035156 349.125 197.347656 349.472656 197.699219 C 349.824219 198.046875 350.132812 198.425781 350.410156 198.835938 C 350.683594 199.246094 350.914062 199.679688 351.105469 200.136719 C 351.292969 200.59375 351.433594 201.0625 351.53125 201.546875 C 351.628906 202.03125 351.675781 202.523438 351.675781 203.015625 C 351.675781 203.507812 351.628906 204 351.53125 204.484375 C 351.433594 204.96875 351.292969 205.4375 351.105469 205.894531 C 350.914062 206.351562 350.683594 206.785156 350.410156 207.195312 C 350.132812 207.605469 349.824219 207.984375 349.472656 208.332031 C 349.125 208.683594 348.742188 208.996094 348.332031 209.269531 C 347.921875 209.542969 347.488281 209.773438 347.03125 209.964844 C 346.574219 210.152344 346.105469 210.296875 345.621094 210.390625 C 345.136719 210.488281 344.648438 210.535156 344.152344 210.535156 L 30.699219 210.535156 C 30.207031 210.535156 29.714844 210.488281 29.230469 210.390625 C 28.746094 210.296875 28.277344 210.152344 27.820312 209.964844 C 27.363281 209.773438 26.929688 209.542969 26.519531 209.269531 C 26.109375 208.996094 25.730469 208.683594 25.378906 208.332031 C 25.03125 207.984375 24.71875 207.605469 24.445312 207.195312 C 24.167969 206.785156 23.9375 206.351562 23.75 205.894531 C 23.558594 205.4375 23.417969 204.96875 23.320312 204.484375 C 23.226562 204 23.175781 203.507812 23.175781 203.015625 C 23.175781 202.523438 23.226562 202.03125 23.320312 201.546875 C 23.417969 201.0625 23.558594 200.59375 23.75 200.136719 C 23.9375 199.679688 24.167969 199.246094 24.445312 198.835938 C 24.71875 198.425781 25.03125 198.046875 25.378906 197.699219 C 25.730469 197.347656 26.109375 197.035156 26.519531 196.761719 C 26.929688 196.488281 27.363281 196.257812 27.820312 196.066406 C 28.277344 195.878906 28.746094 195.734375 29.230469 195.640625 C 29.714844 195.542969 30.207031 195.496094 30.699219 195.496094 Z M 30.699219 195.496094 " fill-opacity="1" fill-rule="nonzero"/></g><path fill="#000000" d="M 337.875 186.964844 L 36.980469 186.964844 C 36.980469 117.558594 85.707031 59.527344 150.824219 45.207031 L 150.824219 114.394531 L 224.027344 114.394531 L 224.027344 45.207031 C 270.34375 55.394531 308.367188 87.691406 326.460938 130.46875 C 330.238281 139.410156 333.089844 148.632812 335.011719 158.144531 C 336.929688 167.65625 337.886719 177.261719 337.875 186.964844 Z M 337.875 186.964844 " fill-opacity="1" fill-rule="nonzero"/><g clip-path="url(#a76dd2e3b7)"><path fill="#000000" d="M 155.320312 5.507812 L 219.53125 5.507812 L 219.53125 110.109375 L 155.320312 110.109375 Z M 155.320312 5.507812 " fill-opacity="1" fill-rule="nonzero"/></g></svg>