<svg xmlns="http://www.w3.org/2000/svg" xmlns:xlink="http://www.w3.org/1999/xlink" width="500" zoomAndPan="magnify" viewBox="0 0 375 374.999991" height="500" preserveAspectRatio="xMidYMid meet" version="1.0"><defs><clipPath id="8d1cdff749"><path d="M 5.84375 96.597656 L 368.84375 96.597656 L 368.84375 278 L 5.84375 278 Z M 5.84375 96.597656 " clip-rule="nonzero"/></clipPath><clipPath id="f892c3a8d1"><path d="M 71 267 L 304 267 L 304 278.097656 L 71 278.097656 Z M 71 267 " clip-rule="nonzero"/></clipPath></defs><g clip-path="url(#8d1cdff749)"><path fill="#f7931e" d="M 360.492188 259.679688 L 347.894531 257.550781 C 346.777344 257.359375 345.679688 257.089844 344.601562 256.746094 C 343.519531 256.398438 342.472656 255.976562 341.453125 255.476562 C 340.4375 254.980469 339.457031 254.414062 338.519531 253.777344 C 337.585938 253.140625 336.695312 252.4375 335.859375 251.675781 C 335.023438 250.910156 334.246094 250.089844 333.527344 249.214844 C 332.808594 248.339844 332.15625 247.417969 331.566406 246.449219 C 330.980469 245.480469 330.464844 244.472656 330.023438 243.429688 C 329.582031 242.390625 329.214844 241.320312 328.925781 240.226562 L 328.84375 239.933594 C 328.546875 238.839844 328.332031 237.730469 328.195312 236.609375 C 328.054688 235.484375 328 234.355469 328.023438 233.222656 C 328.046875 232.089844 328.152344 230.96875 328.335938 229.847656 C 328.523438 228.730469 328.785156 227.632812 329.128906 226.554688 C 329.46875 225.476562 329.886719 224.425781 330.378906 223.40625 C 330.871094 222.386719 331.433594 221.40625 332.066406 220.464844 C 332.699219 219.527344 333.394531 218.636719 334.15625 217.796875 C 334.917969 216.957031 335.734375 216.175781 336.605469 215.453125 L 346.441406 207.316406 C 350.273438 204.148438 351.742188 199.800781 349.996094 196.78125 L 339.046875 177.828125 C 337.304688 174.816406 332.796875 173.902344 328.136719 175.632812 L 316.113281 180.101562 C 315.050781 180.496094 313.96875 180.8125 312.859375 181.050781 C 311.753906 181.285156 310.636719 181.445312 309.507812 181.523438 C 308.378906 181.601562 307.25 181.597656 306.121094 181.515625 C 304.992188 181.429688 303.875 181.265625 302.769531 181.023438 C 301.664062 180.78125 300.582031 180.460938 299.519531 180.0625 C 298.460938 179.664062 297.4375 179.191406 296.445312 178.648438 C 295.453125 178.105469 294.503906 177.492188 293.597656 176.8125 C 292.695312 176.132812 291.84375 175.390625 291.046875 174.589844 L 290.828125 174.371094 C 290.027344 173.574219 289.285156 172.722656 288.605469 171.820312 C 287.925781 170.917969 287.3125 169.96875 286.765625 168.980469 C 286.222656 167.988281 285.75 166.960938 285.351562 165.902344 C 284.953125 164.84375 284.632812 163.765625 284.386719 162.660156 C 284.144531 161.554688 283.980469 160.4375 283.898438 159.3125 C 283.8125 158.183594 283.8125 157.054688 283.890625 155.925781 C 283.96875 154.796875 284.125 153.679688 284.363281 152.574219 C 284.601562 151.46875 284.914062 150.386719 285.308594 149.328125 L 289.78125 137.308594 C 291.515625 132.65625 290.609375 128.152344 287.585938 126.410156 L 268.609375 115.460938 C 265.597656 113.71875 261.234375 115.183594 258.066406 119.011719 L 249.921875 128.839844 C 249.199219 129.710938 248.417969 130.527344 247.574219 131.285156 C 246.734375 132.046875 245.84375 132.742188 244.902344 133.375 C 243.964844 134.003906 242.984375 134.566406 241.960938 135.058594 C 240.941406 135.550781 239.890625 135.96875 238.808594 136.308594 C 237.730469 136.652344 236.628906 136.914062 235.511719 137.101562 C 234.394531 137.285156 233.269531 137.390625 232.136719 137.414062 C 231.003906 137.4375 229.875 137.378906 228.75 137.242188 C 227.625 137.105469 226.515625 136.886719 225.421875 136.59375 C 225.324219 136.5625 225.226562 136.539062 225.128906 136.511719 C 224.035156 136.222656 222.964844 135.859375 221.921875 135.414062 C 220.878906 134.972656 219.871094 134.457031 218.902344 133.871094 C 217.929688 133.285156 217.007812 132.632812 216.132812 131.914062 C 215.253906 131.195312 214.433594 130.417969 213.671875 129.582031 C 212.90625 128.746094 212.203125 127.859375 211.566406 126.921875 C 210.929688 125.988281 210.363281 125.007812 209.863281 123.992188 C 209.367188 122.972656 208.945312 121.925781 208.597656 120.847656 C 208.25 119.769531 207.980469 118.671875 207.789062 117.554688 L 205.660156 104.96875 C 204.832031 100.070312 201.792969 96.625 198.304688 96.625 L 176.386719 96.625 C 172.898438 96.625 169.859375 100.070312 169.03125 104.96875 L 166.902344 117.554688 C 166.710938 118.671875 166.441406 119.769531 166.09375 120.847656 C 165.746094 121.925781 165.324219 122.972656 164.828125 123.992188 C 164.328125 125.007812 163.761719 125.988281 163.125 126.921875 C 162.488281 127.859375 161.785156 128.746094 161.019531 129.582031 C 160.257812 130.417969 159.4375 131.195312 158.558594 131.914062 C 157.683594 132.632812 156.761719 133.285156 155.789062 133.871094 C 154.820312 134.457031 153.8125 134.972656 152.769531 135.414062 C 151.726562 135.859375 150.65625 136.222656 149.5625 136.511719 C 149.464844 136.535156 149.367188 136.5625 149.269531 136.59375 C 148.175781 136.886719 147.066406 137.105469 145.941406 137.242188 C 144.820312 137.378906 143.691406 137.4375 142.554688 137.414062 C 141.421875 137.390625 140.296875 137.285156 139.179688 137.101562 C 138.0625 136.917969 136.960938 136.652344 135.882812 136.3125 C 134.800781 135.96875 133.75 135.554688 132.730469 135.0625 C 131.710938 134.570312 130.730469 134.007812 129.789062 133.375 C 128.847656 132.742188 127.957031 132.046875 127.117188 131.289062 C 126.277344 130.53125 125.496094 129.714844 124.769531 128.84375 L 116.628906 119.015625 C 113.453125 115.1875 109.101562 113.722656 106.082031 115.464844 L 87.105469 126.398438 C 84.082031 128.140625 83.175781 132.640625 84.910156 137.296875 L 89.382812 149.3125 C 89.777344 150.375 90.09375 151.457031 90.332031 152.5625 C 90.566406 153.667969 90.726562 154.785156 90.804688 155.914062 C 90.882812 157.042969 90.878906 158.171875 90.796875 159.296875 C 90.710938 160.425781 90.546875 161.542969 90.304688 162.648438 C 90.0625 163.75 89.742188 164.832031 89.34375 165.890625 C 88.945312 166.949219 88.472656 167.976562 87.925781 168.964844 C 87.382812 169.957031 86.769531 170.90625 86.089844 171.808594 C 85.40625 172.710938 84.664062 173.5625 83.863281 174.359375 L 83.648438 174.574219 C 82.847656 175.378906 81.996094 176.117188 81.09375 176.796875 C 80.1875 177.480469 79.242188 178.089844 78.25 178.636719 C 77.257812 179.179688 76.230469 179.652344 75.171875 180.050781 C 74.113281 180.449219 73.03125 180.769531 71.925781 181.011719 C 70.820312 181.253906 69.703125 181.417969 68.574219 181.5 C 67.445312 181.585938 66.316406 181.585938 65.1875 181.507812 C 64.054688 181.433594 62.9375 181.273438 61.832031 181.035156 C 60.726562 180.796875 59.640625 180.484375 58.578125 180.089844 L 46.554688 175.621094 C 41.894531 173.890625 37.386719 174.796875 35.644531 177.8125 L 24.691406 196.773438 C 22.945312 199.792969 24.414062 204.144531 28.242188 207.3125 L 38.082031 215.445312 C 38.953125 216.171875 39.769531 216.953125 40.527344 217.792969 C 41.289062 218.632812 41.984375 219.523438 42.617188 220.460938 C 43.25 221.402344 43.8125 222.378906 44.304688 223.398438 C 44.796875 224.421875 45.214844 225.46875 45.558594 226.550781 C 45.898438 227.628906 46.164062 228.726562 46.347656 229.84375 C 46.535156 230.960938 46.636719 232.085938 46.660156 233.21875 C 46.683594 234.351562 46.628906 235.480469 46.492188 236.601562 C 46.351562 237.726562 46.136719 238.835938 45.839844 239.929688 L 45.761719 240.21875 C 45.472656 241.316406 45.105469 242.386719 44.664062 243.429688 C 44.21875 244.472656 43.703125 245.476562 43.117188 246.445312 C 42.53125 247.414062 41.878906 248.335938 41.15625 249.214844 C 40.4375 250.089844 39.660156 250.910156 38.824219 251.671875 C 37.988281 252.4375 37.097656 253.136719 36.164062 253.777344 C 35.226562 254.414062 34.246094 254.980469 33.226562 255.476562 C 32.210938 255.976562 31.160156 256.398438 30.082031 256.746094 C 29 257.089844 27.902344 257.359375 26.785156 257.550781 L 14.1875 259.679688 C 9.285156 260.503906 5.835938 263.539062 5.835938 267.03125 L 5.835938 277.976562 L 69.175781 277.976562 C 68.265625 276.613281 67.808594 275.113281 67.8125 273.472656 L 67.8125 272.011719 C 67.8125 271.476562 67.863281 270.949219 67.96875 270.425781 C 68.074219 269.902344 68.226562 269.394531 68.433594 268.902344 C 68.636719 268.40625 68.886719 267.941406 69.183594 267.496094 C 69.480469 267.050781 69.820312 266.640625 70.195312 266.265625 C 70.574219 265.886719 70.984375 265.550781 71.429688 265.253906 C 71.871094 264.957031 72.339844 264.707031 72.835938 264.5 C 73.328125 264.296875 73.835938 264.140625 74.359375 264.039062 C 74.882812 263.933594 75.410156 263.878906 75.945312 263.878906 L 78.550781 263.878906 C 77.886719 263.191406 77.554688 262.371094 77.558594 261.414062 C 77.558594 258.425781 77.683594 255.441406 77.9375 252.460938 C 78.1875 249.480469 78.566406 246.519531 79.070312 243.570312 C 79.574219 240.625 80.203125 237.703125 80.953125 234.808594 C 81.703125 231.914062 82.574219 229.058594 83.570312 226.238281 C 84.5625 223.417969 85.671875 220.644531 86.902344 217.917969 C 88.128906 215.191406 89.46875 212.519531 90.921875 209.90625 C 92.378906 207.292969 93.9375 204.746094 95.609375 202.265625 C 97.277344 199.785156 99.050781 197.378906 100.925781 195.046875 C 102.796875 192.714844 104.765625 190.464844 106.832031 188.300781 C 108.894531 186.136719 111.046875 184.0625 113.285156 182.078125 C 115.527344 180.097656 117.84375 178.210938 120.246094 176.425781 C 122.644531 174.636719 125.113281 172.957031 127.65625 171.378906 C 130.199219 169.800781 132.800781 168.332031 135.46875 166.972656 C 138.132812 165.617188 140.851562 164.375 143.625 163.246094 C 146.394531 162.117188 149.210938 161.109375 152.066406 160.21875 C 154.921875 159.328125 157.8125 158.5625 160.734375 157.914062 C 160.859375 157.886719 160.988281 157.867188 161.117188 157.851562 L 161.117188 133.375 C 161.117188 132.902344 161.207031 132.449219 161.386719 132.015625 C 161.570312 131.578125 161.824219 131.195312 162.160156 130.859375 C 162.492188 130.527344 162.878906 130.269531 163.3125 130.089844 C 163.75 129.910156 164.203125 129.820312 164.675781 129.820312 L 210.011719 129.820312 C 210.484375 129.820312 210.9375 129.910156 211.375 130.089844 C 211.808594 130.269531 212.195312 130.527344 212.527344 130.859375 C 212.863281 131.195312 213.117188 131.578125 213.300781 132.015625 C 213.480469 132.449219 213.570312 132.902344 213.570312 133.375 L 213.570312 157.851562 C 213.699219 157.867188 213.828125 157.886719 213.953125 157.914062 C 247.429688 165.273438 275.40625 188.542969 288.792969 220.164062 C 291.558594 226.691406 293.640625 233.425781 295.046875 240.371094 C 296.449219 247.316406 297.144531 254.332031 297.132812 261.417969 C 297.132812 262.371094 296.804688 263.195312 296.136719 263.882812 L 298.742188 263.882812 C 299.277344 263.882812 299.804688 263.933594 300.332031 264.039062 C 300.855469 264.144531 301.363281 264.296875 301.855469 264.503906 C 302.347656 264.707031 302.816406 264.957031 303.261719 265.253906 C 303.707031 265.550781 304.117188 265.886719 304.492188 266.265625 C 304.871094 266.644531 305.207031 267.054688 305.503906 267.496094 C 305.800781 267.941406 306.050781 268.410156 306.257812 268.902344 C 306.460938 269.394531 306.617188 269.902344 306.71875 270.425781 C 306.824219 270.949219 306.878906 271.476562 306.878906 272.011719 L 306.878906 273.476562 C 306.878906 275.113281 306.425781 276.613281 305.515625 277.976562 L 368.84375 277.976562 L 368.84375 267.03125 C 368.84375 263.539062 365.394531 260.503906 360.492188 259.679688 Z M 360.492188 259.679688 " fill-opacity="1" fill-rule="nonzero"/></g><g clip-path="url(#f892c3a8d1)"><path fill="#000000" d="M 75.246094 267.433594 L 299.4375 267.433594 C 299.953125 267.433594 300.449219 267.535156 300.921875 267.730469 C 301.398438 267.925781 301.820312 268.207031 302.183594 268.570312 C 302.546875 268.933594 302.828125 269.355469 303.023438 269.828125 C 303.222656 270.304688 303.320312 270.796875 303.320312 271.3125 L 303.320312 274.171875 C 303.320312 274.6875 303.222656 275.179688 303.023438 275.65625 C 302.828125 276.132812 302.546875 276.550781 302.183594 276.914062 C 301.820312 277.277344 301.398438 277.558594 300.921875 277.753906 C 300.449219 277.953125 299.953125 278.050781 299.4375 278.050781 L 75.246094 278.050781 C 74.734375 278.050781 74.238281 277.953125 73.761719 277.753906 C 73.289062 277.558594 72.867188 277.277344 72.503906 276.914062 C 72.140625 276.550781 71.859375 276.132812 71.664062 275.65625 C 71.464844 275.179688 71.367188 274.6875 71.367188 274.171875 L 71.367188 271.3125 C 71.367188 270.796875 71.464844 270.304688 71.664062 269.828125 C 71.859375 269.355469 72.140625 268.933594 72.503906 268.570312 C 72.867188 268.207031 73.289062 267.925781 73.761719 267.730469 C 74.238281 267.535156 74.734375 267.433594 75.246094 267.433594 Z M 75.246094 267.433594 " fill-opacity="1" fill-rule="nonzero"/></g><path fill="#000000" d="M 293.574219 261.417969 L 81.113281 261.417969 C 81.113281 212.433594 115.519531 171.492188 161.496094 161.390625 L 161.496094 210.214844 L 213.1875 210.214844 L 213.1875 161.390625 C 245.890625 168.578125 272.738281 191.367188 285.515625 221.554688 C 288.183594 227.859375 290.195312 234.367188 291.550781 241.078125 C 292.90625 247.792969 293.582031 254.570312 293.574219 261.417969 Z M 293.574219 261.417969 " fill-opacity="1" fill-rule="nonzero"/><path fill="#000000" d="M 164.671875 133.375 L 210.011719 133.375 L 210.011719 207.183594 L 164.671875 207.183594 Z M 164.671875 133.375 " fill-opacity="1" fill-rule="nonzero"/></svg>